#!OML:ASF I:\Actors\actors\Patient Classification 2\Patient 1\Session 1\actor1.ASF
:FULLY-SPECIFIED
:DEGREES
337
root -0.114034 18.7528 6.8921 -2.41549 7.29757 -5.43072
lowerback 11.6707 0.0337862 -5.66738
upperback -4.5198 -1.0324 -1.40007
thorax -11.4487 -0.136652 1.88983
lowerneck -28.9889 -6.58291 -6.03775
upperneck 5.72595 -7.74874 9.05611
head 6.87228 -2.98596 2.90778
rclavicle 3.37934e-015 -2.54444e-014
rhumerus -39.3821 17.8692 -95.4059
rradius 131.859
rwrist 8.6341
rhand 12.2524 -55.0866
rfingers 7.12502
rthumb 37.2594 -81.0835
lclavicle 3.37934e-015 -2.54444e-014
lhumerus -13.0821 -28.7293 96.1692
lradius 116.315
lwrist -13.9582
lhand -2.22093 -14.8612
lfingers 7.12502
lthumb 23.4615 13.7283
rfemur 15.9732 -3.04853 16.6219
rtibia 7.95139e-015
rfoot -12.0326 -12.3289
rtoes -11.2552
lfemur -3.40966 -4.88866 -9.43644
ltibia 28.5068
lfoot -17.9254 4.74986
ltoes -58.7368
338
root -0.107764 18.7789 6.93616 -2.57609 7.85126 -5.55971
lowerback 10.9062 -0.388437 -5.38234
upperback -4.68299 -1.50536 -1.41036
thorax -11.1414 -0.388942 1.80598
lowerneck -28.8464 -6.31028 -5.61401
upperneck 5.81274 -7.54652 8.99301
head 6.84902 -2.88719 2.85158
rclavicle -6.95746e-015 3.18055e-015
rhumerus -38.7422 17.0572 -94.2518
rradius 134.844
rwrist 8.64224
rhand 8.65139 -53.1517
rfingers 7.12502
rthumb 33.8461 -79.9695
lclavicle -6.95746e-015 3.18055e-015
lhumerus -17.9049 -29.6234 97.4755
lradius 116.251
lwrist -13.162
lhand 2.45382 -12.6034
lfingers 7.12502
lthumb 27.9385 15.3379
rfemur 16.3486 -3.55328 16.4692
rtibia 3.65764e-014
rfoot -11.3843 -11.9586
rtoes -8.63776
lfemur -3.29339 -4.83811 -9.17556
ltibia 28.4819
lfoot -17.1376 3.98046
ltoes -58.6712
339
root -0.0956978 18.8048 6.97396 -2.74457 8.17045 -5.53168
lowerback 10.1376 -0.680686 -5.08653
upperback -4.79928 -1.81461 -1.52218
thorax -10.7985 -0.570699 1.56544
lowerneck -28.8704 -6.07237 -5.19199
upperneck 6.06661 -7.37612 8.81621
head 6.90169 -2.80623 2.75037
rclavicle -5.1684e-015 -1.43125e-014
rhumerus -36.3441 15.5782 -92.038
rradius 136.997
rwrist 9.51043
rhand 6.82106 -51.6127
rfingers 7.12502
rthumb 32.1053 -78.7975
lclavicle -5.1684e-015 -1.43125e-014
lhumerus -22.8702 -30.0655 99.311
lradius 116.075
lwrist -12.4737
lhand 8.1796 -9.64609
lfingers 7.12502
lthumb 33.3978 17.2693
rfemur 16.6846 -3.81704 16.1852
rtibia -3.49861e-014
rfoot -10.7316 -11.8245
rtoes -6.68809
lfemur -3.09209 -4.73651 -9.11475
ltibia 28.4713
lfoot -16.4079 3.31682
ltoes -58.5758
340
root -0.0820892 18.8278 7.00537 -3.02375 8.23203 -5.49051
lowerback 9.51906 -0.796095 -4.74159
upperback -4.89135 -1.89349 -1.64089
thorax -10.538 -0.643776 1.24651
lowerneck -29.0019 -5.94955 -4.91784
upperneck 6.49121 -7.30215 8.56844
head 7.03507 -2.77544 2.63247
rclavicle 7.15625e-015 -1.74931e-014
rhumerus -33.1792 13.8974 -89.7443
rradius 138.049
rwrist 9.47032
rhand 0.71206 -50.292
rfingers 7.12502
rthumb 26.2722 -78.493
lclavicle 7.15625e-015 -1.74931e-014
lhumerus -27.502 -29.8582 101.413
lradius 115.959
lwrist -11.7977
lhand 16.1821 -5.94646
lfingers 7.12502
lthumb 40.9632 18.9816
rfemur 17.0998 -3.82803 15.9736
rtibia -2.8625e-014
rfoot -10.2455 -11.88
rtoes -5.54462
lfemur -2.68892 -4.64112 -9.08973
ltibia 28.4425
lfoot -15.6966 2.77282
ltoes -58.4676
341
root -0.0703963 18.844 7.03039 -3.39873 7.97069 -5.38903
lowerback 8.92658 -0.700146 -4.43689
upperback -4.90539 -1.69735 -1.77238
thorax -10.2205 -0.583673 0.888783
lowerneck -28.9393 -5.89014 -4.66036
upperneck 6.72198 -7.27366 8.16544
head 7.07123 -2.79119 2.46073
rclavicle 2.28602e-014 5.56597e-014
rhumerus -29.7119 12.2109 -87.7553
rradius 137.49
rwrist 11.5862
rhand -6.8352 -48.3986
rfingers 7.12502
rthumb 19.0293 -77.4877
lclavicle 2.28602e-014 5.56597e-014
lhumerus -31.0887 -29.2884 103.23
lradius 115.851
lwrist -11.0054
lhand 26.5782 -1.61803
lfingers 7.12502
lthumb 50.6061 19.2806
rfemur 17.5728 -3.51817 15.7882
rtibia -3.65764e-014
rfoot -10.059 -12
rtoes -3.97788
lfemur -2.08851 -4.42131 -9.11678
ltibia 28.3804
lfoot -15.0273 2.30639
ltoes -58.445
342
root -0.0625698 18.8539 7.04941 -3.7973 7.4084 -5.1487
lowerback 8.47475 -0.425493 -4.12863
upperback -4.92239 -1.28402 -2.02341
thorax -9.99991 -0.420241 0.370491
lowerneck -28.9038 -5.86812 -4.42002
upperneck 7.0235 -7.28916 7.74985
head 7.13812 -2.82751 2.28026
rclavicle 2.46493e-014 3.18055e-015
rhumerus -26.6341 10.3529 -86.709
rradius 135.455
rwrist 15.4686
rhand -12.6568 -46.7861
rfingers 7.12502
rthumb 13.424 -76.3336
lclavicle 2.46493e-014 3.18055e-015
lhumerus -33.4701 -28.9539 104.463
lradius 115.73
lwrist -9.7443
lhand 34.5366 0.900598
lfingers 7.12502
lthumb 57.7328 16.8594
rfemur 18.0115 -2.90761 15.5507
rtibia 1.43125e-014
rfoot -10.0398 -12.2117
rtoes -2.52349
lfemur -1.3538 -4.09268 -9.26656
ltibia 28.2627
lfoot -14.4093 1.89614
ltoes -58.5339
343
root -0.0587424 18.8598 7.06477 -4.14235 6.59052 -4.8206
lowerback 7.94519 0.0136516 -3.83752
upperback -4.88842 -0.64997 -2.30334
thorax -9.67499 -0.150162 -0.198318
lowerneck -29.0868 -5.96378 -4.44703
upperneck 7.51557 -7.39709 7.52279
head 7.3254 -2.88814 2.18718
rclavicle 5.96354e-015 0
rhumerus -24.3253 8.24986 -86.7499
rradius 132.88
rwrist 18.1218
rhand -15.2414 -46.1157
rfingers 7.12502
rthumb 10.9319 -75.8111
lclavicle 5.96354e-015 0
lhumerus -34.3243 -29.0016 105.055
lradius 116.049
lwrist -9.17519
lhand 39.3438 1.20352
lfingers 7.12502
lthumb 61.8491 12.8841
rfemur 18.3226 -2.04914 15.3079
rtibia 6.36111e-014
rfoot -10.1275 -12.4949
rtoes -1.34931
lfemur -0.555802 -3.73193 -9.50009
ltibia 28.0662
lfoot -13.8672 1.55015
ltoes -58.6672
344
root -0.0596338 18.8596 7.07996 -4.43608 5.61078 -4.38161
lowerback 7.46506 0.606093 -3.60989
upperback -4.9754 0.169951 -2.60965
thorax -9.50389 0.218471 -0.780954
lowerneck -29.1103 -6.17589 -4.69429
upperneck 8.15485 -7.61549 7.41702
head 7.56112 -2.99805 2.15225
rclavicle 9.14409e-015 4.6118e-014
rhumerus -21.7279 7.30412 -86.7583
rradius 129.33
rwrist 19.6591
rhand -16.7042 -48.1973
rfingers 7.12502
rthumb 9.52076 -77.9622
lclavicle 9.14409e-015 4.6118e-014
lhumerus -33.9578 -29.4325 105.132
lradius 116.711
lwrist -8.9799
lhand 35.9058 -1.46521
lfingers 7.12502
lthumb 58.9235 13.3976
rfemur 18.5573 -1.0341 15.0323
rtibia -3.65764e-014
rfoot -10.3757 -12.8255
rtoes -0.777767
lfemur 0.298421 -3.34075 -9.85494
ltibia 27.7896
lfoot -13.5517 1.31379
ltoes -58.7403
345
root -0.0641475 18.8525 7.09625 -4.71565 4.6478 -3.94377
lowerback 6.46622 1.2807 -4.07199
upperback -4.92656 1.09727 -2.46682
thorax -8.88742 0.697875 -0.486662
lowerneck -28.7492 -6.36741 -5.15587
upperneck 8.60108 -7.69638 7.10596
head 7.66388 -3.08706 2.10747
rclavicle 5.1684e-015 3.81667e-014
rhumerus -19.8888 6.60443 -86.5846
rradius 125.822
rwrist 20.0654
rhand -15.9067 -51.0237
rfingers 7.12502
rthumb 10.2901 -80.7519
lclavicle 5.1684e-015 3.81667e-014
lhumerus -32.2333 -29.882 105.167
lradius 117.357
lwrist -8.18827
lhand 31.38 -3.32411
lfingers 7.12502
lthumb 54.9431 14.8556
rfemur 18.784 -0.0424967 14.8014
rtibia -3.18055e-015
rfoot -10.7076 -13.1586
rtoes -0.859521
lfemur 1.15797 -2.85292 -10.1896
ltibia 27.4764
lfoot -13.4389 1.09411
ltoes -58.825
346
root -0.0695728 18.8395 7.11039 -4.98638 3.82484 -3.69617
lowerback 5.93137 1.83741 -4.02512
upperback -5.1554 1.86865 -2.50895
thorax -8.83794 1.07085 -0.655875
lowerneck -28.0698 -6.51846 -5.54047
upperneck 9.20103 -7.84526 7.13836
head 7.79284 -3.17658 2.15969
rclavicle -3.69739e-014 3.18055e-015
rhumerus -19.9451 6.58737 -86.9446
rradius 121.747
rwrist 21.8872
rhand -16.4491 -50.6533
rfingers 7.12502
rthumb 9.76685 -80.4068
lclavicle -3.69739e-014 3.18055e-015
lhumerus -29.2245 -30.4982 104.193
lradius 117.836
lwrist -7.22402
lhand 25.7143 -5.14268
lfingers 7.12502
lthumb 49.8161 16.1761
rfemur 18.9777 0.798628 14.7299
rtibia 7.95139e-015
rfoot -11.0782 -13.37
rtoes 0.104973
lfemur 1.93212 -2.27914 -10.3032
ltibia 27.2027
lfoot -13.5218 0.817089
ltoes -58.9631
347
root -0.0759874 18.8191 7.11949 -5.30582 3.23044 -3.76215
lowerback 5.46962 2.28961 -3.76262
upperback -5.33725 2.5281 -2.41942
thorax -8.76929 1.3808 -0.783748
lowerneck -27.3957 -6.69722 -5.93665
upperneck 9.71967 -8.03105 7.19394
head 7.89817 -3.28394 2.21717
rclavicle -1.23246e-014 2.38542e-014
rhumerus -20.3412 6.87294 -87.2232
rradius 117.558
rwrist 23.4996
rhand -14.1335 -51.0934
rfingers 7.12502
rthumb 12.0004 -80.7294
lclavicle -1.23246e-014 2.38542e-014
lhumerus -25.4376 -30.7742 102.915
lradius 118.259
lwrist -6.85654
lhand 19.2576 -7.21107
lfingers 7.12502
lthumb 43.8429 16.7302
rfemur 19.2159 1.39079 14.9427
rtibia 6.36111e-015
rfoot -11.4001 -13.4737
rtoes 1.34348
lfemur 2.62175 -1.84377 -10.1315
ltibia 27.0322
lfoot -13.9497 0.713609
ltoes -59.0288
